<svg width="563" height="117" viewBox="0 0 563 117" fill="none" xmlns="http://www.w3.org/2000/svg">
<rect width="116.631" height="116.631" rx="58.3154" fill="white"/>
<path d="M40.5865 82.2125C36.7322 82.2125 33.5632 81.356 31.0793 79.643C28.5955 77.93 26.754 75.7031 25.5549 72.9623C24.4415 70.2215 23.8848 67.3522 23.8848 64.3545C23.8848 59.7294 24.9554 55.4041 27.0966 51.3786C29.2379 47.2674 31.8502 43.7557 34.9336 40.8437C36.7206 39.1532 38.494 37.7352 40.2538 36.5894C42.6638 35.0204 45.7461 35.3924 48.1262 37.0064L53.3568 40.5536C54.3033 41.1955 54.2008 42.6279 53.1935 43.1693C51.6701 43.988 50.1657 44.883 48.6804 45.8542C46.4535 47.3102 44.4407 48.8947 42.6421 50.6077C40.8434 52.3207 39.4302 54.0765 38.4024 55.8752L39.0448 56.3891C39.73 55.9608 40.4152 55.6611 41.1004 55.4898C41.8712 55.3185 42.8562 55.2328 44.0553 55.2328C45.9396 55.2328 47.8239 55.7039 49.7082 56.646C51.5925 57.5025 53.177 58.8301 54.4617 60.6287C55.7465 62.4274 56.3888 64.6971 56.3888 67.4379C56.3888 70.8639 55.618 73.6903 54.0763 75.9172C52.6203 78.0585 50.6931 79.643 48.2949 80.6708C45.8967 81.6986 43.3273 82.2125 40.5865 82.2125ZM76.9448 82.2125C73.0905 82.2125 69.9215 81.356 67.4376 79.643C64.9538 77.93 63.1123 75.7031 61.9132 72.9623C60.7998 70.2215 60.2431 67.3522 60.2431 64.3545C60.2431 59.7294 61.3137 55.4041 63.4549 51.3786C65.5962 47.2674 68.2085 43.7557 71.2919 40.8437C73.0789 39.1532 74.8523 37.7352 76.6121 36.5894C79.0221 35.0204 82.1045 35.3924 84.4846 37.0064L89.7151 40.5536C90.6616 41.1955 90.5591 42.6279 89.5518 43.1693C88.0284 43.988 86.524 44.883 85.0387 45.8542C82.8118 47.3102 80.799 48.8947 79.0004 50.6077C77.2017 52.3207 75.7885 54.0765 74.7607 55.8752L75.4031 56.3891C76.0883 55.9608 76.7735 55.6611 77.4587 55.4898C78.2295 55.3185 79.2145 55.2328 80.4136 55.2328C82.2979 55.2328 84.1822 55.7039 86.0665 56.646C87.9508 57.5025 89.5353 58.8301 90.82 60.6287C92.1048 62.4274 92.7471 64.6971 92.7471 67.4379C92.7471 70.8639 91.9763 73.6903 90.4346 75.9172C88.9786 78.0585 87.0514 79.643 84.6532 80.6708C82.2551 81.6986 79.6856 82.2125 76.9448 82.2125Z" fill="#19739F"/>
<path d="M150.324 62.1271C150.324 58.2821 151.08 54.872 152.59 51.8967C154.146 48.9214 156.252 46.6328 158.907 45.0307C161.562 43.4286 164.514 42.6276 167.764 42.6276C170.236 42.6276 172.593 43.1769 174.836 44.2754C177.079 45.3282 178.864 46.7472 180.191 48.5324V30.4748H189.941V81.2832H180.191V75.6531C179.001 77.5298 177.331 79.0403 175.179 80.1846C173.028 81.329 170.533 81.9011 167.695 81.9011C164.491 81.9011 161.562 81.0772 158.907 79.4294C156.252 77.7815 154.146 75.47 152.59 72.4947C151.08 69.4737 150.324 66.0178 150.324 62.1271ZM180.26 62.2644C180.26 59.9299 179.802 57.9388 178.887 56.291C177.971 54.5973 176.736 53.3157 175.179 52.446C173.623 51.5305 171.952 51.0728 170.167 51.0728C168.382 51.0728 166.734 51.5076 165.224 52.3773C163.713 53.247 162.477 54.5287 161.516 56.2223C160.6 57.8701 160.143 59.8384 160.143 62.1271C160.143 64.4157 160.6 66.4297 161.516 68.1691C162.477 69.8628 163.713 71.1673 165.224 72.0828C166.78 72.9982 168.428 73.456 170.167 73.456C171.952 73.456 173.623 73.0211 175.179 72.1514C176.736 71.236 177.971 69.9543 178.887 68.3065C179.802 66.6128 180.26 64.5988 180.26 62.2644ZM208.942 48.7383C210.178 46.999 211.871 45.5571 214.023 44.4128C216.22 43.2227 218.714 42.6276 221.507 42.6276C224.756 42.6276 227.686 43.4286 230.295 45.0307C232.95 46.6328 235.033 48.9214 236.543 51.8967C238.099 54.8262 238.878 58.2363 238.878 62.1271C238.878 66.0178 238.099 69.4737 236.543 72.4947C235.033 75.47 232.95 77.7815 230.295 79.4294C227.686 81.0772 224.756 81.9011 221.507 81.9011C218.714 81.9011 216.243 81.329 214.091 80.1846C211.986 79.0403 210.269 77.5984 208.942 75.8591V99.4095H199.329V43.2455H208.942V48.7383ZM229.059 62.1271C229.059 59.8384 228.579 57.8701 227.617 56.2223C226.702 54.5287 225.466 53.247 223.91 52.3773C222.399 51.5076 220.751 51.0728 218.966 51.0728C217.227 51.0728 215.579 51.5305 214.023 52.446C212.512 53.3157 211.276 54.5973 210.315 56.291C209.4 57.9846 208.942 59.9757 208.942 62.2644C208.942 64.553 209.4 66.5442 210.315 68.2378C211.276 69.9314 212.512 71.236 214.023 72.1514C215.579 73.0211 217.227 73.456 218.966 73.456C220.751 73.456 222.399 72.9982 223.91 72.0828C225.466 71.1673 226.702 69.8628 227.617 68.1691C228.579 66.4755 229.059 64.4615 229.059 62.1271ZM262.753 81.9011C259.091 81.9011 255.795 81.1001 252.866 79.498C249.936 77.8502 247.625 75.5386 245.931 72.5634C244.283 69.5881 243.46 66.1551 243.46 62.2644C243.46 58.3736 244.306 54.9406 246 51.9654C247.739 48.9901 250.097 46.7014 253.072 45.0994C256.047 43.4515 259.366 42.6276 263.028 42.6276C266.69 42.6276 270.008 43.4515 272.983 45.0994C275.959 46.7014 278.293 48.9901 279.987 51.9654C281.726 54.9406 282.596 58.3736 282.596 62.2644C282.596 66.1551 281.703 69.5881 279.918 72.5634C278.179 75.5386 275.798 77.8502 272.777 79.498C269.802 81.1001 266.461 81.9011 262.753 81.9011ZM262.753 73.5246C264.492 73.5246 266.117 73.1127 267.628 72.2887C269.184 71.419 270.42 70.1374 271.336 68.4438C272.251 66.7502 272.709 64.6904 272.709 62.2644C272.709 58.6483 271.747 55.879 269.825 53.9565C267.948 51.9883 265.637 51.0041 262.89 51.0041C260.144 51.0041 257.832 51.9883 255.956 53.9565C254.125 55.879 253.209 58.6483 253.209 62.2644C253.209 65.8805 254.102 68.6726 255.887 70.6409C257.718 72.5634 260.007 73.5246 262.753 73.5246ZM299.259 48.7383C300.495 46.999 302.189 45.5571 304.34 44.4128C306.537 43.2227 309.032 42.6276 311.824 42.6276C315.074 42.6276 318.003 43.4286 320.613 45.0307C323.267 46.6328 325.35 48.9214 326.861 51.8967C328.417 54.8262 329.195 58.2363 329.195 62.1271C329.195 66.0178 328.417 69.4737 326.861 72.4947C325.35 75.47 323.267 77.7815 320.613 79.4294C318.003 81.0772 315.074 81.9011 311.824 81.9011C309.032 81.9011 306.56 81.329 304.409 80.1846C302.303 79.0403 300.587 77.5984 299.259 75.8591V99.4095H289.647V43.2455H299.259V48.7383ZM319.377 62.1271C319.377 59.8384 318.896 57.8701 317.935 56.2223C317.019 54.5287 315.783 53.247 314.227 52.3773C312.717 51.5076 311.069 51.0728 309.284 51.0728C307.544 51.0728 305.896 51.5305 304.34 52.446C302.83 53.3157 301.594 54.5973 300.632 56.291C299.717 57.9846 299.259 59.9757 299.259 62.2644C299.259 64.553 299.717 66.5442 300.632 68.2378C301.594 69.9314 302.83 71.236 304.34 72.1514C305.896 73.0211 307.544 73.456 309.284 73.456C311.069 73.456 312.717 72.9982 314.227 72.0828C315.783 71.1673 317.019 69.8628 317.935 68.1691C318.896 66.4755 319.377 64.4615 319.377 62.1271ZM350.736 81.9011C347.623 81.9011 344.831 81.3519 342.359 80.2533C339.888 79.109 337.919 77.5756 336.455 75.6531C335.036 73.7306 334.258 71.6021 334.12 69.2677H343.801C343.984 70.7324 344.694 71.9454 345.93 72.9067C347.211 73.8679 348.791 74.3485 350.667 74.3485C352.498 74.3485 353.917 73.9824 354.924 73.25C355.977 72.5176 356.503 71.5793 356.503 70.4349C356.503 69.199 355.863 68.2836 354.581 67.6885C353.345 67.0477 351.354 66.3611 348.608 65.6287C345.77 64.9421 343.435 64.2326 341.604 63.5003C339.819 62.7679 338.263 61.6464 336.935 60.1359C335.654 58.6254 335.013 56.5885 335.013 54.0252C335.013 51.9196 335.608 49.9971 336.798 48.2577C338.034 46.5183 339.773 45.1451 342.016 44.1381C344.305 43.1311 346.983 42.6276 350.049 42.6276C354.581 42.6276 358.197 43.7719 360.898 46.0606C363.598 48.3035 365.086 51.3474 365.361 55.1924H356.16C356.023 53.6819 355.382 52.4918 354.238 51.6221C353.139 50.7066 351.651 50.2489 349.775 50.2489C348.035 50.2489 346.685 50.5693 345.724 51.2101C344.808 51.8509 344.351 52.7435 344.351 53.8879C344.351 55.1695 344.991 56.1536 346.273 56.8402C347.555 57.4811 349.546 58.1448 352.247 58.8314C354.993 59.518 357.259 60.2275 359.044 60.9598C360.829 61.6922 362.362 62.8365 363.644 64.3928C364.972 65.9034 365.658 67.9174 365.704 70.4349C365.704 72.632 365.086 74.6003 363.85 76.3397C362.66 78.0791 360.921 79.4523 358.632 80.4593C356.389 81.4205 353.757 81.9011 350.736 81.9011ZM384.786 51.1415V69.5423C384.786 70.824 385.084 71.7623 385.679 72.3574C386.319 72.9067 387.372 73.1813 388.837 73.1813H393.3V81.2832H387.258C379.156 81.2832 375.105 77.3467 375.105 69.4737V51.1415H370.573V43.2455H375.105V33.8391H384.786V43.2455H393.3V51.1415H384.786ZM436.123 43.2455V81.2832H426.442V76.477C425.206 78.1248 423.581 79.4294 421.567 80.3906C419.599 81.3061 417.447 81.7638 415.113 81.7638C412.138 81.7638 409.506 81.1459 407.217 79.91C404.928 78.6283 403.12 76.7745 401.793 74.3485C400.511 71.8768 399.87 68.9473 399.87 65.5601V43.2455H409.483V64.1869C409.483 67.2079 410.238 69.5423 411.749 71.1902C413.259 72.7922 415.319 73.5933 417.928 73.5933C420.583 73.5933 422.665 72.7922 424.176 71.1902C425.686 69.5423 426.442 67.2079 426.442 64.1869V43.2455H436.123ZM443.135 62.1271C443.135 58.2821 443.891 54.872 445.401 51.8967C446.957 48.9214 449.063 46.6328 451.718 45.0307C454.373 43.4286 457.325 42.6276 460.575 42.6276C463.047 42.6276 465.404 43.1769 467.647 44.2754C469.89 45.3282 471.675 46.7472 473.002 48.5324V30.4748H482.752V81.2832H473.002V75.6531C471.812 77.5298 470.142 79.0403 467.99 80.1846C465.839 81.329 463.344 81.9011 460.506 81.9011C457.302 81.9011 454.373 81.0772 451.718 79.4294C449.063 77.7815 446.957 75.47 445.401 72.4947C443.891 69.4737 443.135 66.0178 443.135 62.1271ZM473.071 62.2644C473.071 59.9299 472.613 57.9388 471.698 56.291C470.782 54.5973 469.546 53.3157 467.99 52.446C466.434 51.5305 464.763 51.0728 462.978 51.0728C461.193 51.0728 459.545 51.5076 458.034 52.3773C456.524 53.247 455.288 54.5287 454.327 56.2223C453.411 57.8701 452.954 59.8384 452.954 62.1271C452.954 64.4157 453.411 66.4297 454.327 68.1691C455.288 69.8628 456.524 71.1673 458.034 72.0828C459.591 72.9982 461.239 73.456 462.978 73.456C464.763 73.456 466.434 73.0211 467.99 72.1514C469.546 71.236 470.782 69.9543 471.698 68.3065C472.613 66.6128 473.071 64.5988 473.071 62.2644ZM497.015 38.714C495.322 38.714 493.903 38.1876 492.758 37.1348C491.66 36.0362 491.11 34.6859 491.11 33.0839C491.11 31.4818 491.66 30.1544 492.758 29.1016C493.903 28.003 495.322 27.4537 497.015 27.4537C498.709 27.4537 500.105 28.003 501.203 29.1016C502.348 30.1544 502.92 31.4818 502.92 33.0839C502.92 34.6859 502.348 36.0362 501.203 37.1348C500.105 38.1876 498.709 38.714 497.015 38.714ZM501.753 43.2455V81.2832H492.14V43.2455H501.753ZM528.14 81.9011C524.478 81.9011 521.183 81.1001 518.253 79.498C515.324 77.8502 513.012 75.5386 511.318 72.5634C509.671 69.5881 508.847 66.1551 508.847 62.2644C508.847 58.3736 509.693 54.9406 511.387 51.9654C513.126 48.9901 515.484 46.7014 518.459 45.0994C521.434 43.4515 524.753 42.6276 528.415 42.6276C532.077 42.6276 535.395 43.4515 538.37 45.0994C541.346 46.7014 543.68 48.9901 545.374 51.9654C547.113 54.9406 547.983 58.3736 547.983 62.2644C547.983 66.1551 547.09 69.5881 545.305 72.5634C543.566 75.5386 541.186 77.8502 538.164 79.498C535.189 81.1001 531.848 81.9011 528.14 81.9011ZM528.14 73.5246C529.88 73.5246 531.504 73.1127 533.015 72.2887C534.571 71.419 535.807 70.1374 536.723 68.4438C537.638 66.7502 538.096 64.6904 538.096 62.2644C538.096 58.6483 537.135 55.879 535.212 53.9565C533.335 51.9883 531.024 51.0041 528.277 51.0041C525.531 51.0041 523.219 51.9883 521.343 53.9565C519.512 55.879 518.596 58.6483 518.596 62.2644C518.596 65.8805 519.489 68.6726 521.274 70.6409C523.105 72.5634 525.394 73.5246 528.14 73.5246Z" fill="white"/>
</svg>
